<mxfile host="app.diagrams.net" modified="2020-07-26T02:42:44.840Z" agent="5.0 (Windows NT 10.0; Win64; x64) AppleWebKit/537.36 (KHTML, like Gecko) Chrome/84.0.4147.89 Safari/537.36" etag="xGw42XfAqattK4nOcoCm" version="13.5.3" type="github">
  <diagram id="UgPLY5SXMpY3i6oBVvws" name="JVM内存模型">
    <mxGraphModel dx="1771" dy="548" grid="1" gridSize="10" guides="1" tooltips="1" connect="1" arrows="1" fold="1" page="1" pageScale="1" pageWidth="827" pageHeight="1169" math="0" shadow="0">
      <root>
        <mxCell id="Jtt3XUwIDci7Yw0Crd0u-0" />
        <mxCell id="Jtt3XUwIDci7Yw0Crd0u-1" parent="Jtt3XUwIDci7Yw0Crd0u-0" />
        <mxCell id="Jtt3XUwIDci7Yw0Crd0u-3" value="JVM内存模型" style="rounded=0;whiteSpace=wrap;html=1;fillColor=none;fontStyle=1;fontSize=16;verticalAlign=top;align=left;" vertex="1" parent="Jtt3XUwIDci7Yw0Crd0u-1">
          <mxGeometry x="-150" y="50" width="1080" height="660" as="geometry" />
        </mxCell>
        <mxCell id="Jtt3XUwIDci7Yw0Crd0u-2" value="栈Stack" style="rounded=1;whiteSpace=wrap;html=1;fontSize=14;verticalAlign=top;align=center;fontStyle=1;strokeWidth=3;strokeColor=#66CC00;" vertex="1" parent="Jtt3XUwIDci7Yw0Crd0u-1">
          <mxGeometry x="-100" y="110" width="270" height="530" as="geometry" />
        </mxCell>
        <mxCell id="Jtt3XUwIDci7Yw0Crd0u-4" value="存放：基本数据类型，&lt;br&gt;对象的引用（地址）" style="text;html=1;strokeColor=none;fillColor=none;align=center;verticalAlign=middle;whiteSpace=wrap;rounded=0;fontSize=14;fontColor=#66CC00;" vertex="1" parent="Jtt3XUwIDci7Yw0Crd0u-1">
          <mxGeometry x="-50" y="170" width="170" height="50" as="geometry" />
        </mxCell>
        <mxCell id="Jtt3XUwIDci7Yw0Crd0u-5" value="堆Heap" style="rounded=1;whiteSpace=wrap;html=1;fontSize=14;verticalAlign=top;align=center;fontStyle=1;strokeWidth=3;strokeColor=#FF8000;" vertex="1" parent="Jtt3XUwIDci7Yw0Crd0u-1">
          <mxGeometry x="230" y="130" width="650" height="230" as="geometry" />
        </mxCell>
        <mxCell id="Jtt3XUwIDci7Yw0Crd0u-19" value="" style="shape=table;html=1;whiteSpace=wrap;startSize=0;container=1;collapsible=0;childLayout=tableLayout;fillColor=none;fontSize=14;align=center;" vertex="1" parent="Jtt3XUwIDci7Yw0Crd0u-1">
          <mxGeometry x="-80" y="230" width="230" height="216" as="geometry" />
        </mxCell>
        <mxCell id="Jtt3XUwIDci7Yw0Crd0u-20" value="" style="shape=partialRectangle;html=1;whiteSpace=wrap;collapsible=0;dropTarget=0;pointerEvents=0;fillColor=none;top=0;left=0;bottom=0;right=0;points=[[0,0.5],[1,0.5]];portConstraint=eastwest;" vertex="1" parent="Jtt3XUwIDci7Yw0Crd0u-19">
          <mxGeometry width="230" height="43" as="geometry" />
        </mxCell>
        <mxCell id="Jtt3XUwIDci7Yw0Crd0u-21" value="名称" style="shape=partialRectangle;html=1;whiteSpace=wrap;connectable=0;fillColor=none;top=0;left=0;bottom=0;right=0;overflow=hidden;" vertex="1" parent="Jtt3XUwIDci7Yw0Crd0u-20">
          <mxGeometry width="77" height="43" as="geometry" />
        </mxCell>
        <mxCell id="Jtt3XUwIDci7Yw0Crd0u-22" value="地址" style="shape=partialRectangle;html=1;whiteSpace=wrap;connectable=0;fillColor=none;top=0;left=0;bottom=0;right=0;overflow=hidden;" vertex="1" parent="Jtt3XUwIDci7Yw0Crd0u-20">
          <mxGeometry x="77" width="76" height="43" as="geometry" />
        </mxCell>
        <mxCell id="Jtt3XUwIDci7Yw0Crd0u-23" value="值" style="shape=partialRectangle;html=1;whiteSpace=wrap;connectable=0;fillColor=none;top=0;left=0;bottom=0;right=0;overflow=hidden;" vertex="1" parent="Jtt3XUwIDci7Yw0Crd0u-20">
          <mxGeometry x="153" width="77" height="43" as="geometry" />
        </mxCell>
        <mxCell id="Jtt3XUwIDci7Yw0Crd0u-24" value="" style="shape=partialRectangle;html=1;whiteSpace=wrap;collapsible=0;dropTarget=0;pointerEvents=0;fillColor=none;top=0;left=0;bottom=0;right=0;points=[[0,0.5],[1,0.5]];portConstraint=eastwest;" vertex="1" parent="Jtt3XUwIDci7Yw0Crd0u-19">
          <mxGeometry y="43" width="230" height="44" as="geometry" />
        </mxCell>
        <mxCell id="Jtt3XUwIDci7Yw0Crd0u-25" value="int i" style="shape=partialRectangle;html=1;whiteSpace=wrap;connectable=0;fillColor=none;top=0;left=0;bottom=0;right=0;overflow=hidden;" vertex="1" parent="Jtt3XUwIDci7Yw0Crd0u-24">
          <mxGeometry width="77" height="44" as="geometry" />
        </mxCell>
        <mxCell id="Jtt3XUwIDci7Yw0Crd0u-26" value="AG85000" style="shape=partialRectangle;html=1;whiteSpace=wrap;connectable=0;fillColor=none;top=0;left=0;bottom=0;right=0;overflow=hidden;" vertex="1" parent="Jtt3XUwIDci7Yw0Crd0u-24">
          <mxGeometry x="77" width="76" height="44" as="geometry" />
        </mxCell>
        <mxCell id="Jtt3XUwIDci7Yw0Crd0u-27" value="1" style="shape=partialRectangle;html=1;whiteSpace=wrap;connectable=0;fillColor=none;top=0;left=0;bottom=0;right=0;overflow=hidden;" vertex="1" parent="Jtt3XUwIDci7Yw0Crd0u-24">
          <mxGeometry x="153" width="77" height="44" as="geometry" />
        </mxCell>
        <mxCell id="Jtt3XUwIDci7Yw0Crd0u-32" value="" style="shape=partialRectangle;html=1;whiteSpace=wrap;collapsible=0;dropTarget=0;pointerEvents=0;fillColor=none;top=0;left=0;bottom=0;right=0;points=[[0,0.5],[1,0.5]];portConstraint=eastwest;" vertex="1" parent="Jtt3XUwIDci7Yw0Crd0u-19">
          <mxGeometry y="87" width="230" height="43" as="geometry" />
        </mxCell>
        <mxCell id="Jtt3XUwIDci7Yw0Crd0u-33" value="int a" style="shape=partialRectangle;html=1;whiteSpace=wrap;connectable=0;fillColor=none;top=0;left=0;bottom=0;right=0;overflow=hidden;" vertex="1" parent="Jtt3XUwIDci7Yw0Crd0u-32">
          <mxGeometry width="77" height="43" as="geometry" />
        </mxCell>
        <mxCell id="Jtt3XUwIDci7Yw0Crd0u-34" value="&lt;span&gt;AG85001&lt;/span&gt;" style="shape=partialRectangle;html=1;whiteSpace=wrap;connectable=0;fillColor=none;top=0;left=0;bottom=0;right=0;overflow=hidden;" vertex="1" parent="Jtt3XUwIDci7Yw0Crd0u-32">
          <mxGeometry x="77" width="76" height="43" as="geometry" />
        </mxCell>
        <mxCell id="Jtt3XUwIDci7Yw0Crd0u-35" value="6" style="shape=partialRectangle;html=1;whiteSpace=wrap;connectable=0;fillColor=none;top=0;left=0;bottom=0;right=0;overflow=hidden;" vertex="1" parent="Jtt3XUwIDci7Yw0Crd0u-32">
          <mxGeometry x="153" width="77" height="43" as="geometry" />
        </mxCell>
        <mxCell id="_05lVrpJPnE38PTHq813-0" value="" style="shape=partialRectangle;html=1;whiteSpace=wrap;collapsible=0;dropTarget=0;pointerEvents=0;fillColor=none;top=0;left=0;bottom=0;right=0;points=[[0,0.5],[1,0.5]];portConstraint=eastwest;" vertex="1" parent="Jtt3XUwIDci7Yw0Crd0u-19">
          <mxGeometry y="130" width="230" height="43" as="geometry" />
        </mxCell>
        <mxCell id="_05lVrpJPnE38PTHq813-1" value="Person p" style="shape=partialRectangle;html=1;whiteSpace=wrap;connectable=0;fillColor=none;top=0;left=0;bottom=0;right=0;overflow=hidden;" vertex="1" parent="_05lVrpJPnE38PTHq813-0">
          <mxGeometry width="77" height="43" as="geometry" />
        </mxCell>
        <mxCell id="_05lVrpJPnE38PTHq813-2" value="&lt;span&gt;AG85002&lt;/span&gt;" style="shape=partialRectangle;html=1;whiteSpace=wrap;connectable=0;fillColor=none;top=0;left=0;bottom=0;right=0;overflow=hidden;" vertex="1" parent="_05lVrpJPnE38PTHq813-0">
          <mxGeometry x="77" width="76" height="43" as="geometry" />
        </mxCell>
        <mxCell id="_05lVrpJPnE38PTHq813-3" value="&lt;span&gt;AE93000&lt;/span&gt;" style="shape=partialRectangle;html=1;whiteSpace=wrap;connectable=0;fillColor=none;top=0;left=0;bottom=0;right=0;overflow=hidden;" vertex="1" parent="_05lVrpJPnE38PTHq813-0">
          <mxGeometry x="153" width="77" height="43" as="geometry" />
        </mxCell>
        <mxCell id="Jtt3XUwIDci7Yw0Crd0u-28" value="" style="shape=partialRectangle;html=1;whiteSpace=wrap;collapsible=0;dropTarget=0;pointerEvents=0;fillColor=none;top=0;left=0;bottom=0;right=0;points=[[0,0.5],[1,0.5]];portConstraint=eastwest;" vertex="1" parent="Jtt3XUwIDci7Yw0Crd0u-19">
          <mxGeometry y="173" width="230" height="43" as="geometry" />
        </mxCell>
        <mxCell id="Jtt3XUwIDci7Yw0Crd0u-29" value="" style="shape=partialRectangle;html=1;whiteSpace=wrap;connectable=0;fillColor=none;top=0;left=0;bottom=0;right=0;overflow=hidden;" vertex="1" parent="Jtt3XUwIDci7Yw0Crd0u-28">
          <mxGeometry width="77" height="43" as="geometry" />
        </mxCell>
        <mxCell id="Jtt3XUwIDci7Yw0Crd0u-30" value="" style="shape=partialRectangle;html=1;whiteSpace=wrap;connectable=0;fillColor=none;top=0;left=0;bottom=0;right=0;overflow=hidden;" vertex="1" parent="Jtt3XUwIDci7Yw0Crd0u-28">
          <mxGeometry x="77" width="76" height="43" as="geometry" />
        </mxCell>
        <mxCell id="Jtt3XUwIDci7Yw0Crd0u-31" value="" style="shape=partialRectangle;html=1;whiteSpace=wrap;connectable=0;fillColor=none;top=0;left=0;bottom=0;right=0;overflow=hidden;" vertex="1" parent="Jtt3XUwIDci7Yw0Crd0u-28">
          <mxGeometry x="153" width="77" height="43" as="geometry" />
        </mxCell>
        <mxCell id="Jtt3XUwIDci7Yw0Crd0u-37" value="方法区Method" style="rounded=1;whiteSpace=wrap;html=1;fontSize=14;verticalAlign=top;align=center;fontStyle=1;strokeWidth=3;strokeColor=#3399FF;" vertex="1" parent="Jtt3XUwIDci7Yw0Crd0u-1">
          <mxGeometry x="230" y="400" width="650" height="240" as="geometry" />
        </mxCell>
        <mxCell id="Jtt3XUwIDci7Yw0Crd0u-38" value="存放：所有对象包括自己 new&amp;nbsp;的对象和String对象" style="text;html=1;strokeColor=none;fillColor=none;align=center;verticalAlign=middle;whiteSpace=wrap;rounded=0;fontSize=14;fontColor=#FF8000;" vertex="1" parent="Jtt3XUwIDci7Yw0Crd0u-1">
          <mxGeometry x="370" y="160" width="391" height="30" as="geometry" />
        </mxCell>
        <mxCell id="Jtt3XUwIDci7Yw0Crd0u-39" value="存放：所有Class和Static变量" style="text;html=1;strokeColor=none;fillColor=none;align=center;verticalAlign=middle;whiteSpace=wrap;rounded=0;fontSize=14;fontColor=#3399FF;" vertex="1" parent="Jtt3XUwIDci7Yw0Crd0u-1">
          <mxGeometry x="370" y="430" width="391" height="30" as="geometry" />
        </mxCell>
        <mxCell id="_05lVrpJPnE38PTHq813-4" value="" style="shape=table;html=1;whiteSpace=wrap;startSize=0;container=1;collapsible=0;childLayout=tableLayout;fillColor=none;fontSize=14;align=center;" vertex="1" parent="Jtt3XUwIDci7Yw0Crd0u-1">
          <mxGeometry x="460" y="210" width="190" height="130" as="geometry" />
        </mxCell>
        <mxCell id="_05lVrpJPnE38PTHq813-5" value="" style="shape=partialRectangle;html=1;whiteSpace=wrap;collapsible=0;dropTarget=0;pointerEvents=0;fillColor=none;top=0;left=0;bottom=0;right=0;points=[[0,0.5],[1,0.5]];portConstraint=eastwest;" vertex="1" parent="_05lVrpJPnE38PTHq813-4">
          <mxGeometry width="190" height="43" as="geometry" />
        </mxCell>
        <mxCell id="_05lVrpJPnE38PTHq813-7" value="地址" style="shape=partialRectangle;html=1;whiteSpace=wrap;connectable=0;fillColor=none;top=0;left=0;bottom=0;right=0;overflow=hidden;" vertex="1" parent="_05lVrpJPnE38PTHq813-5">
          <mxGeometry width="94" height="43" as="geometry" />
        </mxCell>
        <mxCell id="_05lVrpJPnE38PTHq813-8" value="值" style="shape=partialRectangle;html=1;whiteSpace=wrap;connectable=0;fillColor=none;top=0;left=0;bottom=0;right=0;overflow=hidden;" vertex="1" parent="_05lVrpJPnE38PTHq813-5">
          <mxGeometry x="94" width="96" height="43" as="geometry" />
        </mxCell>
        <mxCell id="_05lVrpJPnE38PTHq813-9" value="" style="shape=partialRectangle;html=1;whiteSpace=wrap;collapsible=0;dropTarget=0;pointerEvents=0;fillColor=none;top=0;left=0;bottom=0;right=0;points=[[0,0.5],[1,0.5]];portConstraint=eastwest;" vertex="1" parent="_05lVrpJPnE38PTHq813-4">
          <mxGeometry y="43" width="190" height="44" as="geometry" />
        </mxCell>
        <mxCell id="_05lVrpJPnE38PTHq813-11" value="AE93000" style="shape=partialRectangle;html=1;whiteSpace=wrap;connectable=0;fillColor=none;top=0;left=0;bottom=0;right=0;overflow=hidden;" vertex="1" parent="_05lVrpJPnE38PTHq813-9">
          <mxGeometry width="94" height="44" as="geometry" />
        </mxCell>
        <mxCell id="_05lVrpJPnE38PTHq813-12" value="new Person()" style="shape=partialRectangle;html=1;whiteSpace=wrap;connectable=0;fillColor=none;top=0;left=0;bottom=0;right=0;overflow=hidden;" vertex="1" parent="_05lVrpJPnE38PTHq813-9">
          <mxGeometry x="94" width="96" height="44" as="geometry" />
        </mxCell>
        <mxCell id="_05lVrpJPnE38PTHq813-21" value="" style="shape=partialRectangle;html=1;whiteSpace=wrap;collapsible=0;dropTarget=0;pointerEvents=0;fillColor=none;top=0;left=0;bottom=0;right=0;points=[[0,0.5],[1,0.5]];portConstraint=eastwest;" vertex="1" parent="_05lVrpJPnE38PTHq813-4">
          <mxGeometry y="87" width="190" height="43" as="geometry" />
        </mxCell>
        <mxCell id="_05lVrpJPnE38PTHq813-23" value="" style="shape=partialRectangle;html=1;whiteSpace=wrap;connectable=0;fillColor=none;top=0;left=0;bottom=0;right=0;overflow=hidden;" vertex="1" parent="_05lVrpJPnE38PTHq813-21">
          <mxGeometry width="94" height="43" as="geometry" />
        </mxCell>
        <mxCell id="_05lVrpJPnE38PTHq813-24" value="" style="shape=partialRectangle;html=1;whiteSpace=wrap;connectable=0;fillColor=none;top=0;left=0;bottom=0;right=0;overflow=hidden;" vertex="1" parent="_05lVrpJPnE38PTHq813-21">
          <mxGeometry x="94" width="96" height="43" as="geometry" />
        </mxCell>
        <mxCell id="_05lVrpJPnE38PTHq813-27" value="" style="endArrow=classic;html=1;fontSize=14;fontColor=#3399FF;entryX=0;entryY=0.5;entryDx=0;entryDy=0;exitX=1;exitY=0.5;exitDx=0;exitDy=0;" edge="1" parent="Jtt3XUwIDci7Yw0Crd0u-1" source="_05lVrpJPnE38PTHq813-0" target="_05lVrpJPnE38PTHq813-9">
          <mxGeometry width="50" height="50" relative="1" as="geometry">
            <mxPoint x="160" y="410" as="sourcePoint" />
            <mxPoint x="210" y="360" as="targetPoint" />
          </mxGeometry>
        </mxCell>
        <mxCell id="_05lVrpJPnE38PTHq813-28" value="" style="shape=image;verticalLabelPosition=bottom;labelBackgroundColor=#ffffff;verticalAlign=top;aspect=fixed;imageAspect=0;image=data:image/png,iVBORw0KGgoAAAANSUhEUgAAAY4AAADACAYAAAATIYTUAAAgAElEQVR4Ae1dMa8kt5Ge+wEX339QLAjwBOt/4MgKBWFhYQJFDja5wFhD2AWU3WzwjE2sTJs8ARsI93C4xF7cBsbDLaREL3nBaYPVHbSZYafmoUgWWSSLbPZMz0z3zPeAh+lmk8XiR7K+riK7e2XwBwSAABAAAkBgBAKrEXmRFQgAASAABICAAXFgEAABIAAEgMAoBEAco+BCZiAABIAAEABxYAwAASAABIDAKARAHKPgQmYgAASAABAAcWAMAIFjInCzMavNzTFrPFhdN5uVWW/vDyYfgueLAIhjvn0Dzc4NASKN1dosxta+fmI+f/DAPP36rd4T91uzXq3MVDx4v12b1Wq1LIx0ZM4+9YjE8c68Wn9sHq8emVeNm5T320fm8Yry+f/1S/O+1g03z8wV5WvlqZWdOv3+1rzaPDKPN7f7Se6VM6e297Z4lM635tqOgWfmrlf+rPPdmM1q4A59FD6VxvaOn0rxJHmIOCizJcON2duHWhqpJkBd3smiieP9FBNtqj6/eebIbl/i6JQzq7Z3YjhO5/MiDgrrrNZb07hnMuPwqYDeOX4qpXdIvjfb9Wrv8Jv1Ngbw2UE5FDkQArMjjtDO+5fz8SaCUo2DqSbsVHIaqi7j0jkRh/M2pgrpNPvvFONnAq8DxNHs1dld7CAODjE9M6/4Dt+Gh56JkBPnkWGofOKLPDcvzbUNW1GYScoR+DSIozucdX9rrtdp6Otq+05U0nP4ztxtHjkS4/DZ6mNz7X3zQheRR4attHxX62fmzt+CatdDuE54MUW+Wphuz7aHekTdhBanRxxLfK42L0O7ZJnQHlXnd+Zu60OPEsPV+FBVjJVTvJz+YyilZaCsVyCtuzWILKP0GHhx2Jaz9aR1hdE1YFgZ0zo+PHfqc7CQITHM+jDoVTvwISpa36D/r17XMnL6/sTY6heuBb/zQWAEcYh1hzAoeVLzwO4hjpYcAcy+xMHlg66u3mjwRF2Nw7uNpu80xGENhTeivRO/yKcZ4UnanhM/gZT3M59rGPHYiGRTN4zG1HB+PJY4Box0PSbvQi5hlxAt/EoSMc44yh1RgTBCPj1sM2QUh/u0gfPI8dMY6sql1+arLuLIsFMkDSUVpD1UANdPisAo4rja3PqF6jiQ3Z03n/cRR12OwIKNn2YYOVsjDxuiWBcXGvfLcqxndPOuuVBvDWPv3d39S33xtzfUcIS2s0Fj78rkuvE5GXcO3pOn48k6lGPIazpzerJxguVEAmIxzV/vJQRbnme2O4G8B2KPeZfT8F1zbtzyc1uVQlxDxBFUZByKMc/zy20EsVjvO35Cpa2DwxMHk2+1v1rq4drJEBhBHJIU4l2ku4PngS3z5BNfy5PLEThUJ1FPHr0uUXLE4Tu3W0p6Llp4jY1ojTj8bhe7C0zKyu+oh+Sw5lV8Jmx7VocjUdHHFV2ZbAvvLpPHTSkIyV7Ix0/IPXzgt4m6MFW+k4kIwpEFGfTNZuOfRYjprgLvPYQQlA9ZCQtXJw4mIy+Jtpn2LPzW8Ck8PZJbwafSJ8OgaTkOTxweoUkW2LUWIO0wCOxGHMVdZW6sKO7N4Qu+Y8zzGGMKOaKR1UnUk4fr+tjs63GI2oy5d/F8F3LhdvkcYcJq24fjJOetyO+5fVXi0OQIbbh84+50irZHsvBtkPVxm/f1OFjO+qXfekvrHbw2leEsIOg69CQSQlDGEcLmhn7J87gxGzLq0hPxeXJjnxNFfm71UTyOengsa8FgnwrSHiSOgfGTVa2f9hLHsLemy4+p3V5ZLIKjEyIwgjiYCMRvMCLRUIc4drir5onfyBPk9MS6G3JkqIONUdDD613zCCqdEAlQtJtkCp1tUa2+UBcTRybD6sb4eAWaco7bdquRN2ZXfpNBGn5q6BPwaeQJ/TUCn0o/1ZPL+DsZ/DV5Gt57oHPyPCJReG9DeBfO+KfbTkvicAY0khRr1TKsPfhwnhHEIcd9GIesT+9vJ3FoZNlbhc8H4hgJ2Imz70gcj8o7ebuLhw3jI3O9vfUP/LFhLHff0MOA+V1x1VCHO3OeRFyX/JUTy5j3cvcWT6SRk6jUh3ROdw1xH9JdchKKEnWFPfpWj0fmass7yxgflmLs3bYu57htdxqJOgMZRF3Ja7QPPjK+RZ+K8iEP95noL238WK+1xEfUXhxaA5SFl3JDznkCL/h1EbnwbbJwF5HKDYWcQiF69k3suPJ1isuJbjavGq7qwYfzCLxqHodpjZ9EperJ90/cbireVRV+n2jbqxSSrUquXwBx1LGZ45URxCEH7RybAp2AwHERKD2OVv01b6RVZgHXJvA2qJUgjgX0tVARxCHAwCEQGIPAOOLg13NM926nMboeJK/3ympe1qg6LQGlmwpGlUfmoyIA4jgq3KjsnBAYTRx8Zz2JpT09ktT+PAy4j1YcQlzUiyD3afCCy3YQx4JbB9WBABAAAkBgcgRAHJNDCoFAAAgAgfNGAMRx3v2L1gEBIAAEJkcAxNEL6ftvzWePPzVP849D3D03v9TSe+UaY15ff2p+efWtqXwupy7J6vQ786L6wRIu+pN58eqNefv+J07o+rV6Xb/pytuf6Sfz+q6tx9tXvytxrlTQ2yaSuQvGVO6zV219K6oNJlt8Hz832ibXwcKcYdfxR2On2rdvzNPHn+7U7l3wevvq2zYGto0945xBSX93nl/VenfHJ9VsuWcgjt6+o4mmGXeR7gyBQi4DdVC5gpAGytBlawwff2p++XhoUv1kXly169AMcK9eUQ/Spe+/bYxJ37JNZGBeEAFkdbRlRSCtnlofxizqke1XMrLeSOf1p+el3qpQ33+9utdkkG5VGaRvq722PQpxiTFdq7eVPh7nAUNMelZJrqWJu9Y7jnNJ1A51XhI+g3Mul3Ze52dCHM4wVieQ7bOePI3OrU2mPD0/b4jkS7sNbJpsbKRc235ZvXstDbE1hokBJlksp2781YnEDWn9Dky2IfKhvqU87T72Cti6RBuufme9xdTAl9dT2R4LMlgkr8dwVQxcibWoO+mD54IYU4Nex0eWyeR63Z82PKbX12k9hGA3ztX+fmOeVvB6++q57iGLeVPcxFRwrVafXdhtfv1kXlzrUQCSl46VrEJ5asl5RH5ZdsbH50EctnPKCZDg3pMnKZCdhIFNBlvUFdJFfi3Nh6Q+uyrvmKsGjYxK5Y5Rm9zWuHB+ai8fm5I4orb1a+mEe2Oekry7N+2wQhQcjqzhDLqEZOWAdMmwlVjfPe+asKne9BGRn9phQOqvx8/Ni7s3Il8dF0Vxl0SYVwymMW/M6yzMWfbhG/OiYeTzekcZMFvY3dm3xttnr95Y71TNE/pwWI5aPpAk3/DkLaJzwqlHfinD4rH3/KJ+zwjY6+3Ioq6bSibW7oA4tJ4+eVrPBOrJUzZEGyRk2LR0Mdhogr3/1uR3eqWhcDWSbtqdPOXX0rvugBMjVjeCUaeBNvGkv37uCKQEq0gh2WRA1DYUuX2CILzi7rSDOFydwqhYUkgJmPC2hs0b+devtDvLHLMaPqKuBPOygbbeYHzLO3vGSzVAuTh7c0J9IcYd95H4rcmqjblybFG7BZnnemTncTxlF9TTUra63jGAK4uu1V1rK+Uvx2be73TjET1OVZa/8dhrrYobsZDf5XscttPE5NWA78mjlRNpdlKLSR8vlYM/XkuPphnYVN/vzGeawZD6JZNNmQykGuEiy6Tq2kX7OLG8x5HlaZ3W2luWoTZJA0j9qaS9chsRrNEnvamNtlzFsNnrlWukBJdXMcgxo/NMVoKxl1f1OKhCkvFp8EoSfEYYHzsWQ5iyRNP2a+u6935j30YZRNbkdYS/gTES8vkDMqw1ssrzunPXz06XiseV46wLqobYVGPvQ3IlBnm/C+Ko3biM6LuK6otLXjxx2EnUnKx+EXkgT7vn/IS3RionKTnQ3CTgcFQ+gRJDISrsH9gkn4wX1ZkasUJ2Mtmkjr5iO9ilsSaD9jwz4Nl11cCKhmSHhU7Z9fqpoi9llhOX9K/2qSed6nVZM9UVjXm8kutA5ynmlnhkHQnmUVJydPdtiPFHfHJS9uOoEraqG2cf5unoJ5LhSDf+Pr1zhju56+9pk2igJpfryecDFyMcyIAXHiZnUHXoCf05Af3zi/Ln/c7EQRsziFAVctPIlXQWN0MlQXHjlvm7cOJwE6zdKT15BjrPDgy6y3chKNqWKwdFPHaGhdYBtK210VCk9XUP7BCrL41YISOZbMpkSFTQrycyQ91JweZJrb3NQvZiqk9YLO0hDjthn5vX79+Y19JD8dtLSafYX64f9fGT6hC8hbzvm8ThCUyWuf5WiaGTvm67t9PNjyNlmyr1Cd2Y6EaY6stvbHS0k761oVdBinfPQwgnzafLiqlUv5DDF2zblHS+bn/9gnpmcPO+ys9l39XGW60NlF+Wd+pQvyvzW/SzHUPivO25T2B/EpzmcbJs4mAj0cKyJ0+rvHXr/cT2d3K0eCf/kgHLBkAOLJ/ZDjhpRDqOdQNBgzudiMXkoHYHHXIjSArJ5yn4jlcxdImOaZ0SA+04wUXLINOGDMbVt+a13FVFOIf2SUF87J5d4TP6HaVPcedZYr6Tx2EVcgb+6bUjgOQOXyqcHXMf19tRGm4qU46hfDzk5eR4GNHnyZgTylP6gBdEbSqNOMlwY1K/Jurw/ZsTy9D5MDbsccg57/ovPD9FY7Havn7909bM+2zBxEGDX5sUEvCePDK/csx3X63BEa61B4m+COseANQmRrjTLtRiI+bqc5Mju9NMJnFuKJzAYLCSvLEyNlQxRZJNTK0d1Q1crQTL9/pSWEfsREr0GSSOso5x+uSYMeZCbo5bfi6yxkOS4zYMRH3YUMdc6VE6rrgc/Q4ZRhpXoZ+DUJInCaGsn2WXhjUIyQ5yvOJlK0sleV9vmD+xDB/pxMdX099p5pfSDkW/5OaR+h3EkXbGbM+oM4fc8p48zQaK/ejK4IlFnTEYfhAvlpBHiUGUF6rHVF+c+HIvvh4mUyaDle3a5+qXJKS46sLz6DUmbOCqzcgv0AS0u7CivtFwpG2WO11yMbXzcfpEHZw8OldwkQaxgzhiezIPyI7V2KdJG7IwYb0dOSEkUuIJ1SX11sa27YvsZiRKKI9kGDG7KtucXXIbNCpPqRftbGFUCI4JbnzH8/ZR3u/e46gSg98UUb2ekn677uVcXazHQYMhhmJ0wHvy6CV9qpyw2uTy2WiAuzs/OfGVRbRKZeMGNgnJjKiQK0kkJiuTgS827pbG68VC3W8x8dPL2Zlsk9TXp+dGOTd+mTTtdLw+0nAq/SnHB1WY65goQe1ItyYX+ljDODyui3Khnj7ioPKJh5vrzWPC6iMxCBWlB425wWtDSX1paT2EWCWi8YZ43DiWY88r2mzfUL+P1zeDZ5anCyWOns7oyTOiT7TBYyeWCJfRhGMvSHmOo1bbuIFNUrwxLQQ641R6BMpksGUJo7gwm5fbSS/xtG3dwBWKm9fX0kDl+pahlLaRLuVTSkufMiyY66DLtDF4vnvPDTAXkeOC0/iB0GLnlOtDNfzoy1I79Jsm35+ijvKQvWhZTyQ06vNEdj7Gc4FMMiE9w82WlzdUIaM/cHrEsfeTHQtWB193LRzXIiNZy7hxnOIS6s48CjleSX7U39VscRReepDDY0UquMDjRRKHnThZR+bY9+TJyzTPaRD7Oq1sGhSaDmKw54OpJn/cwPZSrDFSQidCp6Cnpqstn07oJL826ENaWi5pl2g/TZauyf2e1zLkpOU6KsaQ9FcmYXXCBt0VzPhaIi8zgEkjsxPRF2mf+/YkcmNZzeDEq/Uj209Spqi//toZkldiSbKoj7jv9f6icoSbJHefJvUIKst+zIgo5IkHts+CHFFWjOWY2x2x3nm6dj5ufin9LuZ+lC/0TNaLYo5zPlogcbgOSydo3kU9efIyA+fiVRvl3aleVl9vyPP+ZN4Ovt02L7PvOd917iunUV7g1cg1eEkPvVHceeA1IoOST58hWWAdoU5t/NXSg+gKZmSE2/MpSAgH1X4JOeZycIr5NZe2H06PBRLH4cCAZCAABIAAEBhGAMQxjBFyAAEgAASAgEAAxCHAwCEQAAJAAAgMIwDiGMYIOYAAEAACQEAgAOIQYOAQCAABIAAEhhEAcQxjhBxAAAgAASAgEFg2cbx+Yj5/8MA8/Vp7F61oJQ6BABAAAkBgMgRAHJNBaYy52ZjVahX+NzdTCocsIAAEgMA8EFg2ccwDQ2PMvdmuiTA2Blwxm06BIkAACBwIARDHFMCSp7HemvspZEEGEAACQGDmCCyTOPzaBq1v0P9XJ/5K/M1mZdbbPtq4365tKKs3/8zHD9QDAkDgAhFYJnGEjnptvtqZOG7MRqxHyLWJcd6DC1NtbnJ5etgKxBE6DwdAAAgsFIELJo6peowJIyUK8kLGEdBU+kAOEAACQOCwCIA49sbXEUexg+p+a9artemMYO2tBQQAASAABI6FwAUTB3sKcftsCFeNWuh2oapizcJuzQVxHGsgox4gAASOh8AFE8eEIBck4bfnFm6IMbzGsVKuTagRRAEBIAAEDobAIonj+yduNxXvqgq/T063vSoQgl9wLzwQ7kIbwsIzHwwHfoEAEFgeAoskjuXBLDXGw4ISDRwDASCwPARAHMfuM/9akqpHcmx9UB8QAAJAYCQCII6RgO2enT2NlcHyxu4ooiQQAAKnRwDEcfo+gAZAAAgAgUUhsPq/v/7D4B8YYAxgDGAMXNYY+Jd//idD/7v0O4gDxLnTwNllsKHMZRkm9Pe8+xvEAeMP448xgDGAMTBqDIA4MGBGDRjcCR7oTvCbjVk9/Hf0BebjUcbAi4cr8+GX9zvXBeLAQN158MyORMj4rvabEINt8nXwK2Y++WYCIrEyf2G++K6U9duVMR98ZMx///Uf5tlHxnywMuYlxqz5v28cFr/6ssRssA8nxm+WffSf7tPYv//jW31+f/dv5sPVyuw6fi+SOP7y5S/CJ1onNQDagLRGYWNeaNcWn/Y388XDW/Phwx/NX+bQlimIo7u//t18ssfEi8bNyand/Vmj9NAZx5cPz5M4iAwjHp1EMDfimFsfDREHzdfusV72ycURB7lo9JnWoxnyPTpn9GQ6tvH+5gezWv3ZfPjl38ZP/GPr2ltfd39NQxx2PH70b1XitV7G3IxSL5ad+XYijk7Zx5hDy+2je/PFR6udQqQXRhztu7uDDLJuQ1Sy+kH0mXDC/eXLW0scu7q7s2xfd39NQRzDMqRR+u8vY9hqltjtOLbOiTj27iMbQtLDlgfp8+7xntqnCyMOz7Atj6MW+7MApx1ahryiJ1Nei69gL8ISVna8niySWn025gsOr9Hdacgf6+seVN/9bD75yBl88hZWq1vzifQYvvvRfEjpD38OXkRKEH8zX3xE5fT/MSTCC3TOC+T2Z22itto7cmdk1dBiwMPJ0HQYqmtUf1kDWTf6Q3WFvrJ6Z+3dwfhaY0VrIeKf10FahsyGvrw3Y3Xy4Z8gx6+tsL6Un9YUOGTG+bguzjf0y+Vav1UZmY6/nWKNaQfMq/rtK2tf4vAhKn556x/+MzX4pd71cUx5eV7kNuvCiINAlAYoJQIG1RqyLHxg0+Sul95JP5DPdYw0Hpn76InMGk957NuhGUluR/HrQ0ua0Wc5TBIx/MREcesXb382n1RIg0hIW+At9PCTy2JKbwQOuGZtp3yBFGJflZjx5KhPgrIulzefEP1x3/3rsu3IxlkNq2q6N6RV4924Tt5MWFz+zphfSRL56z+MXF+h+gNhiHzSI6rqmBlTIgyZd+hc5pXHpN+uxGHbJog2kFhGlrK+oxzvSxwB6/8yf3jwwAwTh5tzxTzwckAcAVA2Mux90F1qNEp2cFhjJdK0zvQGjQ1udVA1iaPSabKMrNsTh6uzbrh0XaLB/+SbuCbx4qHzPpgoXjx0XkgkAF/uo2wBXPFM9HoZ7/K3IGPqI9n2cC76gtIkJkm/1jHR6tLSivoT+bIN+9c1JXFUDSgRAu/E8sfP/O6tIcObeyT5uZsr4xfsh4giv14bV0P618rNLt3Pa/am899BG6OO0WmIo4bVBXoccvLTsSeQ5M4vNeh2goe7YlE+63CVtXNDmHSyMz75QHHn3guRRtLXtwtxlJ6Ea0eazuTyQ9w8wF6KCF3RYErLCUyS9rXT64ZbEEUTv1z+/sZ8ccRBeHtC4Lvm4EX4viADS2RBYavf+nAT9SGns3Gw3kN+Fy68ixZxMBmxrNZvTgxD5zVZZ0Mccs7I+S7TRx+DOBK3tjaI9kl37pgMF/k73xBbF4as1oHeqBfk0TR8dUMX2iMH0gTEQWsXvHX2L9/84NYzVp4o2Ivw3kW8Xu6ccp7Jn3feB07tqxOH6Ismfssmjn6SytvZOPckIsmDCIE8EvqlkNZvKRwjPRF+RiQL0+REkZ/bMdoIhYUxnM0ZJrjWb62sTN+HOKisWn+GgazvKMdyvme4jau/lzg6bJCiBzwOXvMoPArndXzysPeJ3tRLCZ2cGPtywqukJTtKDqRElt7h1hhrD8Gx56CsTwRXuCeP142JI66XCC9F6F/VRyUO16aEfI9NHAnGZX+Ffm2sMWmEqKXxelvAX+AW62npoF8jgpDEQQb/V/bf5adz8jz4wUKqy3obwrvgB+w+EGkacZABlnX16D3kYeTXazL3IY6azJOny/m+13joJI6B+eXsk1yHdGPowojDGaY8NJQYKtFZDJo2sfmalDUkh/Pm+TRZYcFYDqTEqLWJI5RP2sMehtsR9eFHP5gXydPK7oE+JoMPyTuxZKIsen/3o/kk2V3VJg5NHyYVxoV+C6wHBjZNdE2OlSluBjTDraWRvLw/ZH9NXZeVl4RJdTKoGTRtR1VuyDlPWAfhnUmCFPJwF5HKS9r+K/JY4sju1INMMc5qutbSe4mCyms6WM9B6Fmr5xLSX/2+8mns3/+XErnxYXoxTwqMvM3Jn327MOIYNymtAdljUhedsMfkOkdZNcN9jm2tt0nxsmY6TjSPo96u/rk2hjimqA8yfN903JSFNeDsEQYQR22SJnf3/ZMAg7IfKxCHnMCKt1UbmydKB3H0j+3Z24Fe+2bJpXz/G4gjm4QyTFGETbK8sx8cM9cXxBENkR13rZDBDPryUMSBeRTHwbGwoLknQ7BlvT6MpYWP//oP+xEnIo+y3HBb8CGnGUzmXToOZYYHNzACRhgD9TGwl8exqA/dQlkgAASAABA4OQKrk2sABYAAEAACQGBRCIA4FtVdUBYIAAEgcHoEQByn7wNoAASAABBYFAKdxHFjNvQG1NXKrLf3i2oglAUCQAAIAIFpEegkDl/p/dasVyuzuZlWCUgDAkAACACB5SAwjjjMvdmu4XUsp3uhKRAAAkBgegRAHNNjColAAAgAgbNGAMRx1t2LxgEBIAAEpkdgJHEYc7NZmdV6a7BEPn1nQCIQAAJAYAkIjCYO2yi/SL7CKvkS+hg6AgEgAAQmRWA0cdxv1/A4Ju0CCAMCQAAILAuBkcSBXVXL6l5oCwSAABCYHgEQx/SYQiIQAAJA4KwRAHGcdfeicUAACACB6REAcUyPKSQCASAABM4agXHEgVeOnPVgQOOAABAAAj0IdBIHXnLYAybyAAEgAAQuAYFO4rgEKNBGIAAEgAAQ6EEAxNGDEvIAASAABIBAQADEEaDAARAAAkAACPQgAOLoQQl5gAAQAAJAICAA4ghQ4AAIHAGBm43BO96OgPMMqqAXwp7rF1NBHDMYYFBhxgiQoZ/qk8lW1trM4uvLU7ar1X38QlT/6WmNNO0bt/n6OX1hdOLHF+x7Ai1Opx9DRySOd+bV+mPzePXIvGq8k/399pF5vKJ8/n/90ryvDcybZ+aK8rXy1MpOnX5/a15tHpnHm9v9JPfKmVPbe1s8Sudbc23HwDNz1yv/EPkmM7BuS3vtDjQahZUlKiKr4uXTVpeNmeTLzZO1awB0azx7dXYYFe0eqGLWl6fqMyvn9ITBWC+aON6PMkTc5AP93jxzZLcvcXTKmVXbOyEdp/NMiKOzbUPZWt+xcXfcHcZ1KiM0pOyU1y+dOPzntjVPawzMc3sr+eyII4B5/3I+3kRQqnHQafAbEtylqeQMVjT3DOdEHK076bYnkvQSiCOBYzEnE/TbAomDQ0zPzCu+w7fhoWci5MR5ZBgqn/giz81Lc23DVhRmknLEUGgQR3c46/7WXK/T0NfV9p2opOfwnbnbPHIkxuGz1cfm2scLCl1EHhm20vJdrZ+ZOx+2066HcJ3wYop8tTDdnm0P9Yi6CS1OjziW+FxtXoZ2yTKhParO78zd1oceJYarEaEqf3e7pW/GUCyYvlRpJy2Ff7I7+pDuQ0P5Vy2z61r4hBc/0xh9Vg8B0DQc7lMFhX5iaGphLNu+fO2F6rHtcGTEeRLdJ2xXTa+kvmN6HK+fmM8fPIj/v/na/K/A0dB1m/bafCXyffVaZjLmf7/+TZRRyVfmeWK+T8WIs9aNg8jWOFwwcYh1hzCxeVILUgjrFzXiaMkRyO1LHFw+6OrqjQZP1NU4vNto+k5DHNaQeiPKBjkYV6m3MN5FPs0IT9L2vP8IpLyf+VzDiMdGJJvQNkXnGs6PRxOHJwxrsPgzx9nEpWuJdfOGNknjQZGV5WTLB550QjmXN1/HGJ70vv6hhc8mATFBkU4xFu6Mu0JmZr92FXI9IQUoGKdjEcfbr83TJ5IBPDnItEAsvzH/8dYp6AggGv383JLNgwcmIRcrJ5bhptZ/9/+Okb05KcCt13joKx2hqmgcrja3fqE6prk7bz7v8Tg+NnU5orls/BQjE3I18rAhinWFUqMOWI71jG7eNRfqrWEURr5Z0f1LffG3N1R1hLYzSbF3ZXLd+JyMO98wkKfjSS+UYyBqOnN6snGC5UQCYjHVX2ukvNH0xOHmWt1Isqz6xKyX1cpoacPEwWggrFIAABEESURBVFqw95Eaf77a9lyYOCJp2HISkyCIDvZrV9nOinE8FnEkbXMn3z95YD4viCOShs1FhPMgphVlzFvzH795YJ5+7ZmGCnkCSshEqT8mVbCJGapHFmdto0S1xHEujCAOSQrxLtLdwY8hjpYc0Wg2JjsRh6aPkD3q8J3bLSU9AC28xka0Rhx+t5TdBSZl5XfUQ3JY9yo+E7Y9q8ORqOi/iq5MtoV3l8njphSEZC8ckjikgfZeA93tq3d0+xlYako/cTAiXj81fKZ5D77ckEfC4u3vfu2ancfhDXwSqqIwU0EcbU+hy+Mg/CzhxLBYQiwJznSyO3E4UX48qOOzqOwoCbsRR3FXmRsrintz+ILvGPM8hCcbhxj6Ca2uGZmQgcrXFtC5LundyII7Ht+7eL4LuXC7vKxgRLXtw9zOuJ7znnWvEocmR+jN5QtinbbtkSx8G2R93OZ9PQ6Ws37pt97SegevTWU4CwiKQ3l3XfU4dKNc3kGz9P0MrJUyyqC7egvDTMlDcoauc5OcUmZTuZPVsMjTnH6CdCuyzFE8DucVuPWL2MjCe+gIMZVrF1mYKoqPR55E6uRRH0NRSPto/M1HW96+V0cQBxOB+A1GJBqrEMcOd9U88Rt5ghwjCEfUY2V1yJGhDjZGQQ8vr+YRVJCMBJjpI3S2RbX6Ql1MHJmMpF1egaacBoYHaLvVyBPUld9kkIafGvoEfBp5gs4j8Kn0k9N1a9Yc3x8iDnn3Zg3u4TyOVlhIb44zNIUHlLRJKXk04nDkKyFUtHFJxySOwrsY63E4AuoPQXGrlXAWX6LfUf0iC8bjMyGOR2KdwjfO7uJhw/jIXG9v/QN/0eCXu5NKOVVDHe7MewyR0+m93L3FBBKMeeyU1lGpD+mc7hri8nSXnISiRF3hGQarxyNzteWdZYwPSzH2bluXc9y2O41EnYEMoq7kNdoHHxnfVd6nonzIE8dJeBhUGz/Way3xEbWnh9ZIdaxxeAPMu45oJ9IN7cQSlpBjyyGPXbhOySW/CydltLSQnoeerPaeJFi+/80X2Lmh+Z1+kq/DQE3WLibbTG+JodX5KMRRho7I+/iedkcVZNIOVfH6RSvkpXkldW9jmjDTgolDxLZ5FOMXCACBTgQcQSSGvrPk/LJVQi+ekAX/0gKPWedboasNqsit5p/6gtuJVXgcPhRVpPdU30HmPWJAHD0oIQ8QOEcE/F16YliX2E6NIHgTAIcKuV1LIo4KQTgPI+684qYN/lZwGiynZbBjJ9sxp+U7UtqINQ54HEfqE1RzxgjYO8fFMwfH7dPFcfUhRm88Q8hPaXsePlOyHG9EhGc94o6pzx8MhLcq2lG7pvQwY5jy9ATSQRwVVJAMBIAAEAACF4kAiOMiux2NBgJAAAjsjgCIY3fsUBIIAAEgcJEIgDgustvRaCAABIDA7giAOHbHDiWBABAAAheJAIhjym73OzLqDwNNWRlkAQEgAAROg8CyiYO/D6I90dyLJz/5LJ7y7i1a5JsZcYTteyfd31ighAQgAAQWjsCiiSO8xmMf4uB3Q01BHLMZDPyU8ta+yK54DcRs9IQiQAAILBGBRRPHJICfIXHQg0fOyXAEAuKYZKRACBAAAh6BRRIHf2AovIm38Dj4xXr1z90WMuQL+MZ6H9nTpju90+YgQ3KYODicNeUTrgdpCoQCASAwGwTOnDj4Lazi15PMpMQRurPykrRwvXXgjXz+tlE6V9+q2pLF10AcjAR+gQAQmA6BRRJHaH7Hx4we08eB6LOm+36qNVTaOtiHOFpyd702TBy7SkY5IAAELheBMycO+WJG/lhQ9n2HSdc4QByXO5XQciBwOQiAOAJxDHyqtWtM7EMcpwlVdTULmYAAEAACAoEFEgcvfIt1i7CwzR4G5+FzavGAxxFkfGwej10cD4DuQxxByIQHw6EqXhzHzqsJYYcoIHDmCIA4TOtTrX29//0T+e5+cSw/W9knapJcgQzyhXZtkT18L2FjbiapHUKAABA4dwQWSBzn3iXHbp//JnL35z2PrR/qAwJAYG4IgDjm1iPH1sd/zhTPcRwbeNQHBJaLAIhjuX23p+bsafBT5nuKQ3EgAAQuBgEQx8V0NRoKBIAAEJgGARDHNDhCChAAAkDgYhAAcVxMV6OhQAAIAIFpEABxTIMjpAABIAAELgYBEMchupp2Ku348SR6JTp2OB2iUyATCACBqRAAcUyFJMux21vXZksvVtT+hr4S6B/I25F3tBqRBgSAABCYFAEQx6Rwuld8ND2GIeIgfSz54EnuSbsGwoAAEJgMARDHZFCSvd/n2xlSEf+MBdwOCQqOgQAQmAkCII7JOsJ5G5PZengdk/UMBAEBIDAtAgsmDuU15MFquzv2cCoxs2sIcg0iPkG9Ei8FDGVtfgobpfmKcNSQoR/9edk2EfGLDAs9ZFtxDASAABA4AAILJY6htQS6LslBICcNvF+IToyvvE7F7PnKEKkEMrFpqXxryLW3z4qq3WHvq9cdUSW6CVkgDgEGDoEAEDgqAosmjvqWVyIOXlxOSSYaeO9BBDZwuMfr4lySBiUXXgslrTu/DT4NcRx1lKAyIAAEgIBAYKHEwcbbeQKr3LsI4SVyGDbmhjwESxDiLt57GylviOseJHXBewYeh+hDHAIBIAAEjorAcolDwOTCNiJ0RKRAYaObjXuYTpyv2BOxxCHKWC5apyEpv66Rh4vqZMJejlCuOOz1OJynlBJbIQwJQAAIAIGjI3BGxCGMdliX4DRnhGmdIpBA5nG4UNParKX3UiWXlHBcr/Ua+k7isG1g/ctx4chytfMT6qVEpAABIAAE+hBYHnF4gy93QAUvgtvsiSOQBO+Iyhavg/Gl3VR0LSeKQEAcEms/p6F6Il6ncZ+X1ddfuHn2N+BQJ5ckP06AABAAAhMhsDzimKjhPWKcF7I1tbeHlDLShfjyemfKgLfhpHhy4dBbp2hkAwJAAAjsiwCIo4pguVBezSoveC9l57UJ70kMli+8KqkEjoEAEAACh0MAxFHFtnfNohRgPZVBy1+WoxQKd8UQm5aHPQ3xXImWDWlAAAgAgQMhAOI4ELAQCwSAABA4VwRAHOfas2gXEAACQOBACIA4DgQsxAIBIAAEzhUBEMe59izaBQSAABA4EAIgjgMBC7EXiADtdNtxU8QFooUm74nA8EaaPStoFAdxNMDBpRMgcIxtxr4Ofoh0EltvZWpvFDDmX1fGfLA25n+MMX9cG/PBypg/HRLaG1fHr7eHrGQC2TPS8+h91APf0NdCe7fu99Q1Ms9iiSN56tt/R2MSA6ABaI3CuT6h/Xez3dya9ebHEQ86aiBNlDYFcXT31+5brtPWth/8tEZp40r8aVMShzRaLHcvgjmBQSYyHP13Aj1rOg71Ua3cQdOHiIMq7x7r02q6S3dPq8EO0uyrPY75xPSJOmcHaMYXufnBrFZ/Nuvt38eXnWuJ7v6ahjhar5ohiCwJ1Ijj3phfk0eyMuaP/IoCLW2uWHu9diKOGbWp2Ucz0rNUpeP1RGWhvVMWSBztu7u9EdEEdBsirfC80+63t5Y4DuatnaL53f01BXEMy5BG6X+2MWxlofEk8cetMRxaojz/euNCXIFMToHjiDrPiTiKPhqBg+vTbfqy1LHlx+bvHu9jBdfzL5A4+MnpRuioFvuzAKdx6DLkFeWW1+LLDounu63seD1ZJLX6bMyWPvbEL1QM+WN99W7Krtz/bDZrZ/DJW1itbs1Gegz3P5o1pW9+DgVTgvi72a6pnP4/hkR4gc55gdz+rE3UVvuCSWdk1bWFgIeToekwVNeo/rLI1I3+UF0BWKt31t5wsePAE8ef6Nd7JUQ0tAZC4ZOEOHxoh4y0/ffrJqGW7DqRT/5HoTIiKA6Zsayxay5crvWb1x3OO/QMeZd4YOd7amdGNWMBn5leIHFQF0gDpHeQNWTZ23BtmrRIvZN+IJ8zWNJ4ZO6jJ7L4Bl5+y27dcFUHmg8taUafm8YkEcNPTBS3ZmvDIT+bTYU0iIRcnqoGyQWLKZEhV85vIg7nHIclQoh9VWLGYuuYlHW5vDqJy/5g2fnv/nXZdmTjLK+lec7E4UNakkAS4hDEwvJkXJ7T+Jeu1YjDGntPUpSf8rK3w+WHfkmG/Bs6l3nlcU1Pmad2bNvPJCp/c0KtCThU+r7EEfTq/ARD5btBLIZvqIp5whl2+M26fwcJJy3C3kdqlKxK1thHQ6V97pW/Jy5tnNqcJnE4HYpOkWXkQPIk4uqsGy5VDxMN/uYmrkncbJz3wURxs3FeSCQAX26dLYArnolebz21IGPKKtsezkVfUJrEJBFfx0SrS0sr6k/ky5P969qbOOju2xs6CpH8eh0N/pBRtV6DIADZslpZrYyWJmVpx0NEkV/XZFBaTc9a/tmm+3nN3nT+O2hj1IZNQxyq6D0TF04c3HpPIMmdX2rQ7QTXei/r8IIAqIrcEHK19tcZn3yguHN/1yuNpK9vF+IoPQmnSJrO5PKDCZEK9lJE6IpKpuWSRnWf1A23IIomfnlV+xvzdn/J+vava0rioG1ttFDOYaPcqNq1EnlnTccgDtmh8ziW830vjUAce8HXU9i5Y1l4ggxWiK0LQ1YT6I16QR5Nw1c3PqEaOZAmIA5auwgbcG5+cOsZK08U7EV47+I+XC93TjnP5M9G49Og+8BBnThEXzTxyyuo46nVpaUdkzj668rb6c+Fx5HnIKLgcJMljSwE0/IUctJh2VoZLY3z137Joxj6r5WV6TU9ZZ7aMZVVdchwqpU/WLqc73tV0ksc9TmzV/WNwmficTjgYpydW+y8js2m94ne1EthKS6sUn+NuUpaoXAWlukgDmsM5WduWRZ7Dsr6RDD+PXm8PCaOuF4ivBSu0zpcbsG6IFS+FiqnQq4vkrzHJo4EY9GQ4rA+4TRC0tK4vQkERT31hNYOHiILXnuwxCG9C15glmmimppB1khCSxOi1MM8FDV0rgo5p1CVbOCxiWNgfjn7JNchpbK7HS+QODxJ+If+OESUGCqBBYOmTWy+xjLod0gO583zabICkcmBlBg13XAxcYTySXvYw3A7otbrH8wNux82n3ugj8lgTd6JJRNl0fv+R7NJdle1iUPTJ+gq+qPAemBgk9qaHIu1EKYZbi2N5OX9Iftr6rqsvCRMKjps4LCXODiMFe6waecVbe0VxGEJQLsLz/OIc1JvF+LIm5UTR35dnvfoKfNf2vESPjO9QOIYN4ysAdlxUo+r6TJz1wz3ZaGheFmXBYANGV1Yk+fR3I6bMsM7HSd8aPq8iSO5u59HP5+bFiAO36N2AtfDmefW73l7xngceVmc74hAr33zY1N63TvWGIqdJXHIMIWIdIRG42A6BEAcEUs77jDgIiA4OigCNPfaZOB3m66mv6E5S+I4aG9BOBAAAkDgwhEAcVz4AEDzgQAQAAJjEQBxjEUM+YEAEAACF44AiOPCBwCaDwSAABAYiwCIYyxiyA8EgAAQuHAEOokjPnTXXsW/cDTRfCAABIDABSDQSRweid59wxcAHJoIBIAAELhUBMYRx8B73y8VRLQbCAABIHBJCIA4Lqm30VYgAASAwAQIgDgmABEigAAQAAKXhMBI4vBvMcVLAy9pjKCtQAAIAIEEgdHEYUv7RXLtNduJdJwAASAABIDA2SEwmjjwmvKzGwNoEBAAAkBgFAIjiaPyhbxRVSIzEAACQAAILBkBEMeSew+6AwEgAAROgACI4wSgo0ogAASAwJIRAHEsufegOxAAAkDgBAiMIw68cuQEXYQqgQAQAALzQqCTOPCSw3l1G7QBAkAACJwOgf8HddmQ9sEQnrQAAAAASUVORK5CYII=;" vertex="1" parent="Jtt3XUwIDci7Yw0Crd0u-1">
          <mxGeometry x="-560" y="50" width="398" height="192" as="geometry" />
        </mxCell>
      </root>
    </mxGraphModel>
  </diagram>
</mxfile>
